<!DOCTYPE svg PUBLIC "-//W3C//DTD SVG 1.1//EN" "http://www.w3.org/Graphics/SVG/1.1/DTD/svg11.dtd">
<!-- Uploaded to: SVG Repo, www.svgrepo.com, Transformed by: SVG Repo Mixer Tools -->
<svg width="800px" height="800px" viewBox="0 0 24.00 24.00" fill="none" xmlns="http://www.w3.org/2000/svg" stroke="#ffffff">
<g id="SVGRepo_bgCarrier" stroke-width="0"/>
<g id="SVGRepo_tracerCarrier" stroke-linecap="round" stroke-linejoin="round"/>
<g id="SVGRepo_iconCarrier"> <path d="M3.5 16.75C3.76417 16.75 4.0177 16.7045 4.25319 16.6208C4.31598 17.8073 5.2979 18.75 6.5 18.75C7.74264 18.75 8.75 17.7426 8.75 16.5V7.5C8.75 6.25736 7.74264 5.25 6.5 5.25C5.2979 5.25 4.31598 6.1927 4.25319 7.37916C4.0177 7.29553 3.76417 7.25 3.5 7.25C2.25736 7.25 1.25 8.25736 1.25 9.5V14.5C1.25 15.7426 2.25736 16.75 3.5 16.75Z" fill="#ffffff"/> <path d="M15.25 7.5C15.25 6.25736 16.2574 5.25 17.5 5.25C18.7021 5.25 19.684 6.1927 19.7468 7.37916C19.9823 7.29553 20.2358 7.25 20.5 7.25C21.7426 7.25 22.75 8.25736 22.75 9.5V14.5C22.75 15.7426 21.7426 16.75 20.5 16.75C20.2358 16.75 19.9823 16.7045 19.7468 16.6208C19.684 17.8073 18.7021 18.75 17.5 18.75C16.2574 18.75 15.25 17.7426 15.25 16.5V7.5Z" fill="#ffffff"/> <path d="M14 10.5H10V13.5H14V10.5Z" fill="#ffffff"/> </g>
</svg>